<!-- icon666.com - MILLIONS vector ICONS FREE --><svg id="Capa_1" enable-background="new 0 0 512 512" viewBox="0 0 512 512" xmlns="http://www.w3.org/2000/svg"><g><path d="m337.954 466.209c-26.382 10.474-54.302 15.791-82.954 15.791-124.072 0-225-100.928-225-225 0-58.176 22.24-112.703 61.509-154.2v5.709c0 8.291 6.709 15 15 15s15-6.709 15-15v-42.422c0-8.291-6.709-15-15-15h-42.422c-8.291 0-15 6.709-15 15s6.709 15 15 15h6.66c-45.176 47.157-70.747 109.451-70.747 175.913 0 140.61 114.39 255 255 255 32.461 0 64.102-6.021 94.028-17.9 7.69-3.062 11.455-11.777 8.408-19.482-3.076-7.721-11.821-11.427-19.482-8.409z" fill="#000000" style="fill: rgb(209, 0, 36);"></path><path d="m447.913 430.913h-6.66c45.176-47.157 70.747-109.451 70.747-175.913 0-140.61-114.39-255-255-255-32.461 0-64.102 6.021-94.028 17.9-7.69 3.062-11.455 11.777-8.408 19.482 3.076 7.705 11.807 11.426 19.482 8.408 26.382-10.473 54.302-15.79 82.954-15.79 124.072 0 225 100.928 225 225 0 58.176-22.24 112.703-61.509 154.2v-5.709c0-8.291-6.709-15-15-15s-15 6.709-15 15v42.422c0 8.291 6.709 15 15 15h42.422c8.291 0 15-6.709 15-15s-6.709-15-15-15z" fill="#000000" style="fill: rgb(209, 0, 36);"></path><path d="m61 226c0 8.291 6.709 15 15 15s15-6.709 15-15c0-8.276 6.724-15 15-15s15 6.724 15 15c0 14.297-8.672 21.504-23.994 33.003-16.04 12.026-36.006 26.997-36.006 56.997 0 8.291 6.709 15 15 15h60c8.291 0 15-6.709 15-15s-6.709-15-15-15h-40.237c4.017-6 10.345-11.334 19.232-18.003 16.039-12.026 36.005-26.997 36.005-56.997 0-24.814-20.186-45-45-45s-45 20.186-45 45z" fill="#000000" style="fill: rgb(209, 0, 36);"></path><path d="m196 181c-8.291 0-15 6.709-15 15v60c0 8.291 6.709 15 15 15h45v45c0 8.291 6.709 15 15 15s15-6.709 15-15v-120c0-8.291-6.709-15-15-15s-15 6.709-15 15v45h-30v-45c0-8.291-6.709-15-15-15z" fill="#000000" style="fill: rgb(209, 0, 36);"></path><path d="m391.454 312.367c-2.021 8.027 2.871 16.172 10.913 18.179 7.938 2.008 16.158-2.794 18.179-10.913l30-120c2.26-9.011-5.4-18.633-14.546-18.633h-60c-8.291 0-15 6.709-15 15s6.709 15 15 15h40.796z" fill="#000000" style="fill: rgb(209, 0, 36);"></path><path d="m323.383 317.86 15-120c1.025-8.218-4.805-15.718-13.022-16.743-8.174-.952-15.703 4.805-16.743 13.022l-15 120c-1.025 8.218 4.805 15.718 13.022 16.743 8.567.997 15.744-5.065 16.743-13.022z" fill="#000000" style="fill: rgb(209, 0, 36);"></path></g></svg>