<!-- icon666.com - MILLIONS vector ICONS FREE --><svg id="Capa_1" enable-background="new 0 0 511.995 511.995" viewBox="0 0 511.995 511.995" xmlns="http://www.w3.org/2000/svg"><g><g><path d="m161.12 179.19c0 4.401.214 8.747.589 13.049.691 7.918 7.065 14.16 14.985 14.82l20.352 1.696c3.566 16.449 10.073 31.773 18.897 45.483l-13.23 15.635c-5.134 6.067-5.227 14.989-.117 21.076 2.776 3.306 5.699 6.531 8.81 9.643 3.112 3.112 6.336 6.034 9.643 8.81 6.087 5.11 15.008 5.017 21.076-.117l15.636-13.23c13.711 8.823 29.035 15.33 45.483 18.897l1.696 20.352c.66 7.921 6.902 14.295 14.82 14.985 4.301.375 8.648.589 13.048.589 4.401 0 8.748-.214 13.049-.589 7.918-.691 14.16-7.064 14.82-14.985l1.696-20.352c16.448-3.566 31.773-10.073 45.483-18.897l15.636 13.23c6.067 5.134 14.988 5.227 21.076.117 3.307-2.776 6.531-5.699 9.643-8.81 3.112-3.112 6.034-6.337 8.81-9.643 5.11-6.087 5.017-15.009-.117-21.076l-13.23-15.635c8.823-13.711 15.33-29.035 18.897-45.483l20.352-1.696c7.92-.66 14.294-6.902 14.985-14.82.375-4.301.589-8.648.589-13.049s-.214-8.748-.589-13.049c-.691-7.918-7.065-14.16-14.985-14.82l-20.352-1.696c-3.566-16.449-10.073-31.772-18.897-45.483l13.23-15.636c5.134-6.067 5.227-14.988.117-21.076-2.776-3.307-5.699-6.531-8.81-9.643-3.112-3.112-6.336-6.034-9.643-8.81-6.087-5.11-15.008-5.017-21.076.116l-15.636 13.231c-13.711-8.823-29.035-15.33-45.483-18.897l-1.696-20.352c-.66-7.921-6.902-14.295-14.82-14.985-4.299-.376-8.646-.59-13.047-.59s-8.748.214-13.048.589c-7.918.691-14.16 7.064-14.82 14.985l-1.696 20.352c-16.449 3.566-31.773 10.073-45.483 18.897l-15.636-13.231c-6.067-5.134-14.988-5.227-21.076-.116-3.307 2.776-6.531 5.698-9.643 8.81s-6.034 6.336-8.81 9.643c-5.11 6.087-5.018 15.008.117 21.076l13.23 15.636c-8.823 13.711-15.33 29.035-18.897 45.483l-20.352 1.696c-7.92.66-14.294 6.902-14.985 14.82-.377 4.303-.591 8.649-.591 13.05zm81.757 0c0-49.669 40.264-89.933 89.933-89.933s89.933 40.264 89.933 89.933-40.264 89.933-89.933 89.933-89.933-40.264-89.933-89.933z" fill="#eceaec" style="fill: rgb(255, 255, 255);"></path><path d="m7.734 397.875c.658 3.796 1.489 7.594 2.506 11.388 1.016 3.793 2.196 7.499 3.523 11.115 2.776 7.558 10.815 11.831 18.697 10.181l20.361-4.261c3.994 6.564 8.724 12.806 14.398 18.482 5.675 5.675 11.917 10.404 18.482 14.398l-4.261 20.361c-1.65 7.882 2.623 15.921 10.181 18.697 3.616 1.328 7.321 2.507 11.115 3.524 3.794 1.016 7.592 1.848 11.388 2.506 7.934 1.375 15.653-3.451 18.166-11.101l6.487-19.754c15.528-.344 30.966-4.34 44.953-12.015l15.468 13.84c6.001 5.369 15.099 5.689 21.283.531 2.958-2.468 5.832-5.087 8.609-7.864s5.396-5.651 7.864-8.609c5.158-6.183 4.838-15.282-.531-21.283l-13.84-15.468c7.674-13.988 11.67-29.425 12.014-44.953l19.754-6.487c7.65-2.512 12.477-10.232 11.101-18.166-.658-3.795-1.489-7.594-2.506-11.388-1.016-3.793-2.196-7.499-3.523-11.115-2.776-7.558-10.815-11.831-18.697-10.181l-20.361 4.261c-3.994-6.565-27.476-52.598-27.476-52.598 1.65-7.881-3.766-16.565-11.324-19.341-3.616-1.328-7.321-2.507-11.115-3.524-3.794-1.016-7.592-1.847-11.388-2.506-7.934-1.375-15.653 3.451-18.166 11.101l-6.487 19.755c-15.528.344-30.966 4.34-44.953 12.014l-15.468-13.84c-6.001-5.369-15.099-5.69-21.283-.531-2.958 2.467-5.832 5.087-8.609 7.864s-5.396 5.651-7.864 8.609c-5.158 6.183-4.838 15.282.531 21.283l13.84 15.468c-7.674 13.988-11.67 29.425-12.014 44.953l-19.754 6.487c-7.65 2.514-12.477 10.234-11.101 18.167zm94.173-57.155c19.157-19.157 50.216-19.157 69.373 0s19.157 50.216 0 69.373-50.216 19.157-69.373 0c-19.157-19.156-19.157-50.216 0-69.373z" fill="#dbd8db" style="fill: rgb(255, 255, 255);"></path><path d="m265.453 352.938c-.658-3.795-1.489-7.594-2.506-11.388-1.016-3.793-2.196-7.499-3.523-11.115-2.776-7.558-11.856-12.958-19.737-11.308l-34.262-15.095 6.484 21.797c9.557 35.122-.431 72.863-26.068 98.496-26.755 26.751-63.346 36.851-97.893 26.99l-8.447-2.407-1.101 5.26c2.396 1.749 4.798 3.487 7.302 5.01l-4.262 20.361c-1.65 7.882 2.623 15.921 10.182 18.697 3.615 1.328 7.321 2.507 11.114 3.524 3.794 1.016 7.593 1.848 11.388 2.506 7.933 1.375 15.654-3.451 18.166-11.101l6.487-19.754c15.528-.344 30.965-4.34 44.953-12.015l15.468 13.84c6.001 5.369 15.099 5.689 21.283.531 2.958-2.468 5.832-5.087 8.609-7.864s5.397-5.651 7.864-8.609c5.158-6.183 4.838-15.282-.531-21.283l-13.84-15.468c7.675-13.988 11.671-29.425 12.014-44.953l19.755-6.487c7.65-2.511 12.476-10.231 11.101-18.165z" fill="#c9c5c9" style="fill: rgb(255, 255, 255);"></path><g><path d="m503.911 166.141c-.691-7.918-7.064-14.16-14.984-14.82l-20.353-1.696c-3.566-16.449-10.073-31.772-18.896-45.483l-5.874 5.781c5.241 14.82 7.396 31.166 7.396 47.511 0 77.326-62.907 140.233-140.233 140.233-16.054 0-32.557-2.248-47.376-7.458l-5.83 5.848c13.711 8.823 29.036 15.33 45.483 18.897l1.697 20.352c.661 7.921 6.902 14.295 14.82 14.985 4.301.375 8.648.589 13.048.589 4.401 0 8.749-.214 13.049-.589 7.918-.691 14.161-7.064 14.82-14.985l1.696-20.352c16.449-3.566 31.773-10.073 45.483-18.897l15.637 13.23c6.067 5.134 14.988 5.227 21.075.117 3.306-2.776 6.532-5.699 9.644-8.81 3.112-3.112 6.034-6.337 8.81-9.643 5.11-6.087 5.017-15.009-.118-21.076l-13.23-15.635c8.823-13.711 15.33-29.035 18.896-45.483l20.353-1.696c7.92-.66 14.293-6.902 14.984-14.82.375-4.301.589-8.648.589-13.049.003-4.403-.211-8.749-.586-13.051z" fill="#dbd8db" style="fill: rgb(255, 255, 255);"></path></g></g><g><path d="m258.448 305.296c11.871 7.026 24.534 12.29 37.77 15.698l1.245 14.934c.97 11.642 10.072 20.824 21.643 21.834 4.764.416 9.246.618 13.7.618s8.936-.202 13.701-.618c11.57-1.009 20.672-10.192 21.643-21.834l1.245-14.934c13.236-3.409 25.899-8.672 37.77-15.698l11.482 9.716c8.918 7.546 21.846 7.603 30.743.136 3.664-3.077 6.975-6.103 10.124-9.252 3.151-3.152 6.177-6.463 9.251-10.124 7.468-8.896 7.411-21.826-.135-30.744l-9.716-11.482c7.026-11.87 12.29-24.533 15.699-37.77l14.934-1.245c11.642-.97 20.824-10.073 21.833-21.642.41-4.692.617-9.302.617-13.701 0-4.461-.202-8.943-.617-13.701-1.01-11.57-10.192-20.672-21.834-21.642l-14.934-1.245c-3.409-13.236-8.672-25.899-15.699-37.77l9.716-11.482c7.546-8.918 7.604-21.847.136-30.742-3.074-3.661-6.1-6.973-9.251-10.124-3.149-3.15-6.461-6.176-10.124-9.251-8.895-7.468-21.823-7.411-30.743.135l-11.482 9.716c-11.871-7.026-24.534-12.29-37.77-15.698l-1.245-14.934c-.97-11.642-10.072-20.825-21.643-21.834-4.762-.414-9.244-.616-13.702-.616-4.396 0-9.006.208-13.7.617-11.57 1.009-20.672 10.192-21.643 21.834l-1.245 14.934c-13.236 3.409-25.899 8.672-37.77 15.698l-11.482-9.716c-8.918-7.546-21.848-7.603-30.743-.135-3.663 3.075-6.975 6.102-10.125 9.252-3.151 3.151-6.177 6.463-9.251 10.124-7.468 8.896-7.411 21.825.136 30.743l9.716 11.482c-7.026 11.871-12.29 24.534-15.699 37.77l-14.934 1.245c-11.641.969-20.823 10.071-21.834 21.642v.001c-.416 4.764-.617 9.245-.617 13.7s.202 8.936.617 13.7c1.01 11.571 10.193 20.673 21.834 21.643l14.935 1.244c3.409 13.236 8.672 25.899 15.699 37.77l-9.716 11.482c-7.547 8.918-7.604 21.847-.136 30.743 3.074 3.661 6.1 6.973 9.251 10.124 3.149 3.149 6.461 6.175 10.124 9.251 8.895 7.468 21.824 7.411 30.743-.135zm3.367-15.546c-2.773-1.784-6.386-1.549-8.903.582l-15.635 13.23c-3.326 2.814-8.125 2.855-11.409.098-3.326-2.793-6.323-5.531-9.162-8.369-2.84-2.841-5.578-5.838-8.37-9.163-2.757-3.284-2.716-8.082.098-11.408l13.23-15.635c2.13-2.517 2.366-6.131.582-8.904-8.554-13.291-14.567-27.763-17.874-43.014-.699-3.223-3.42-5.611-6.707-5.885l-20.353-1.696c-4.342-.362-7.764-3.726-8.137-7.999-.377-4.325-.561-8.381-.561-12.396s.183-8.07.561-12.397c.373-4.273 3.795-7.636 8.136-7.998l20.353-1.696c3.286-.274 6.008-2.662 6.707-5.885 3.307-15.25 9.32-29.722 17.875-43.014 1.784-2.773 1.548-6.386-.582-8.903l-13.23-15.636c-2.814-3.326-2.855-8.124-.098-11.408 2.791-3.324 5.529-6.322 8.37-9.162 2.839-2.84 5.836-5.577 9.162-8.37 3.286-2.758 8.083-2.717 11.409.098l15.635 13.23c2.517 2.13 6.13 2.367 8.903.582 13.292-8.554 27.764-14.567 43.014-17.874 3.223-.699 5.611-3.42 5.885-6.707l1.696-20.353c.362-4.342 3.726-7.764 7.998-8.136 8.645-.754 16.146-.754 24.793 0 4.272.373 7.636 3.794 7.998 8.136l1.696 20.353c.274 3.286 2.662 6.008 5.885 6.707 15.25 3.307 29.722 9.32 43.014 17.874 2.773 1.785 6.386 1.548 8.903-.582l15.636-13.231c3.326-2.814 8.125-2.855 11.409-.097 3.326 2.792 6.323 5.53 9.162 8.369 2.841 2.841 5.579 5.838 8.37 9.163 2.757 3.285 2.716 8.083-.098 11.408l-13.231 15.636c-2.13 2.517-2.366 6.13-.582 8.903 8.554 13.292 14.568 27.764 17.875 43.014.699 3.223 3.42 5.611 6.707 5.885l20.353 1.696c4.342.362 7.764 3.725 8.136 7.998.377 4.32.561 8.375.561 12.397 0 4.021-.183 8.076-.561 12.396-.373 4.273-3.794 7.636-8.136 7.998l-20.353 1.696c-3.286.274-6.008 2.662-6.707 5.885-3.307 15.25-9.32 29.722-17.874 43.014-1.785 2.773-1.549 6.386.582 8.904l13.23 15.635c2.814 3.326 2.855 8.124.098 11.409-2.792 3.324-5.529 6.322-8.37 9.163-2.838 2.838-5.835 5.576-9.162 8.37-3.284 2.757-8.083 2.717-11.408-.099l-15.636-13.23c-1.39-1.176-3.114-1.775-4.846-1.775-1.405 0-2.815.394-4.057 1.193-13.292 8.554-27.764 14.567-43.014 17.874-3.223.699-5.611 3.42-5.885 6.707l-1.696 20.352c-.362 4.342-3.726 7.764-7.998 8.136-8.653.755-16.14.755-24.793 0-4.272-.373-7.636-3.794-7.998-8.136l-1.696-20.352c-.274-3.286-2.662-6.008-5.885-6.707-15.251-3.307-29.723-9.321-43.015-17.874z" fill="#000000" style="fill: rgb(209, 0, 36);"></path><path d="m176.578 335.417c-10.682-10.682-24.883-16.564-39.99-16.564s-29.308 5.883-39.99 16.564-16.565 24.884-16.565 39.99 5.883 29.308 16.565 39.99 24.883 16.564 39.99 16.564 29.308-5.883 39.99-16.564c22.051-22.051 22.051-57.929 0-79.98zm-10.606 69.373c-7.849 7.849-18.284 12.171-29.383 12.171s-21.535-4.323-29.383-12.171c-7.849-7.848-12.171-18.283-12.171-29.383s4.323-21.535 12.171-29.383c7.849-7.849 18.284-12.171 29.383-12.171s21.535 4.322 29.383 12.171c16.201 16.202 16.201 42.564 0 58.766z" fill="#000000" style="fill: rgb(209, 0, 36);"></path><path d="m16.49 372.584 14.851-4.877c.973-13.288 4.461-26.344 10.228-38.283l-10.399-11.623c-7.858-8.782-8.16-22.147-.701-31.088 2.631-3.155 5.431-6.219 8.319-9.107 2.887-2.887 5.951-5.686 9.108-8.32 8.941-7.458 22.306-7.156 31.088.701l11.623 10.4c11.938-5.766 24.995-9.254 38.282-10.227l4.877-14.851c3.676-11.196 15.099-18.139 26.572-16.151 4.049.702 8.103 1.594 12.048 2.651 1.809.484 3.635 1.015 5.43 1.577 3.953 1.237 6.155 5.445 4.917 9.398-1.237 3.953-5.443 6.154-9.398 4.917-1.597-.5-3.223-.972-4.832-1.403-3.512-.941-7.121-1.735-10.728-2.36-4.195-.729-8.388 1.875-9.759 6.051l-6.487 19.754c-.992 3.021-3.781 5.088-6.959 5.158-14.518.321-28.873 4.156-41.512 11.092-2.788 1.53-6.238 1.135-8.608-.986l-15.468-13.84c-3.275-2.931-8.21-3.087-11.477-.362-2.812 2.346-5.541 4.839-8.11 7.408-2.572 2.572-5.064 5.301-7.408 8.11-2.725 3.267-2.57 8.201.362 11.477l13.84 15.468c2.121 2.37 2.516 5.82.986 8.609-6.935 12.64-10.77 26.994-11.091 41.512-.07 3.179-2.137 5.968-5.158 6.96l-19.754 6.487c-4.176 1.371-6.778 5.567-6.051 9.758.626 3.609 1.42 7.218 2.36 10.728.942 3.515 2.059 7.038 3.32 10.471 1.467 3.994 5.816 6.326 10.121 5.426l20.362-4.261c3.108-.652 6.293.729 7.944 3.443 3.898 6.409 8.371 12.154 13.294 17.077s10.668 9.396 17.077 13.294c2.714 1.651 4.093 4.834 3.442 7.943l-4.261 20.361c-.9 4.303 1.432 8.654 5.426 10.121 3.433 1.261 6.956 2.377 10.471 3.32 3.51.94 7.119 1.734 10.727 2.36 4.191.726 8.388-1.875 9.759-6.051l6.487-19.754c.992-3.021 3.781-5.088 6.959-5.158 14.518-.321 28.873-4.157 41.512-11.091 2.788-1.53 6.237-1.135 8.608.986l15.468 13.84c3.276 2.931 8.21 3.086 11.478.36 2.809-2.342 5.537-4.834 8.109-7.406 2.575-2.576 5.067-5.304 7.408-8.111 2.725-3.267 2.57-8.201-.361-11.477l-13.84-15.468c-2.121-2.37-2.516-5.82-.986-8.609 6.935-12.639 10.77-26.994 11.091-41.511.07-3.179 2.137-5.968 5.158-6.96l19.754-6.487c4.177-1.372 6.778-5.567 6.052-9.76-.625-3.607-1.419-7.216-2.36-10.727-.433-1.614-.907-3.246-1.409-4.85-1.237-3.953.964-8.16 4.917-9.398 3.956-1.239 8.161.965 9.398 4.918.563 1.801 1.096 3.634 1.582 5.447 1.058 3.945 1.949 7.999 2.651 12.048 1.988 11.472-4.955 22.895-16.151 26.572l-14.851 4.877c-.973 13.288-4.461 26.344-10.227 38.282l10.399 11.623c7.858 8.782 8.159 22.146.702 31.087-2.628 3.151-5.427 6.216-8.32 9.109-2.891 2.891-5.955 5.69-9.108 8.319-8.94 7.458-22.305 7.156-31.087-.701l-11.623-10.4c-11.938 5.766-24.995 9.254-38.282 10.228l-4.877 14.851c-3.255 9.911-12.58 16.49-22.636 16.49-1.304 0-2.62-.111-3.936-.339-4.051-.702-8.104-1.594-12.048-2.651-3.949-1.059-7.905-2.313-11.759-3.729-10.929-4.014-17.351-15.739-14.937-27.273l3.202-15.302c-5.648-3.811-10.808-8.041-15.385-12.618s-8.808-9.737-12.618-15.386l-15.306 3.203c-11.533 2.415-23.26-4.008-27.273-14.937-1.416-3.854-2.67-7.81-3.728-11.759-1.057-3.944-1.949-7.997-2.651-12.049-1.988-11.471 4.955-22.894 16.151-26.571z" fill="#000000" style="fill: rgb(209, 0, 36);"></path><path d="m252.555 123.984c2.351-3.411 7.021-4.27 10.432-1.92s4.27 7.021 1.92 10.431c-9.508 13.797-14.534 29.943-14.534 46.694 0 45.454 36.979 82.433 82.433 82.433s82.433-36.979 82.433-82.433-36.979-82.433-82.433-82.433c-16.751 0-32.897 5.026-46.694 14.534-3.41 2.35-8.081 1.491-10.431-1.919-2.351-3.411-1.491-8.081 1.919-10.432 16.311-11.241 35.4-17.183 55.206-17.183 53.725 0 97.433 43.708 97.433 97.433s-43.708 97.433-97.433 97.433-97.433-43.708-97.433-97.433c-.001-19.804 5.941-38.894 17.182-55.205z" fill="#000000" style="fill: rgb(209, 0, 36);"></path></g></g></svg>