<!-- icon666.com - MILLIONS vector ICONS FREE --><svg id="line" viewBox="0 0 64 64" xmlns="http://www.w3.org/2000/svg"><path d="m14.27024 19.13974a.99968.99968 0 0 0 1.41406-.00781l8.49707-8.582a.99956.99956 0 1 0 -1.4209-1.40625l-8.49707 8.582a.99965.99965 0 0 0 .00684 1.41406z" fill="#000000" style="fill: rgb(209, 0, 36);"></path><path d="m19.48118 17.90927a3.05078 3.05078 0 1 0 3.05127-3.0498 3.05413 3.05413 0 0 0 -3.05127 3.0498zm4.10156 0a1.05078 1.05078 0 1 1 -1.05029-1.0498 1.05194 1.05194 0 0 1 1.05029 1.0498z" fill="#000000" style="fill: rgb(209, 0, 36);"></path><path d="m15.30784 14.08994a3.05078 3.05078 0 1 0 -3.05176-3.05078 3.05413 3.05413 0 0 0 3.05176 3.05078zm0-4.10156a1.05078 1.05078 0 1 1 -1.05176 1.05078 1.05246 1.05246 0 0 1 1.05176-1.05078z" fill="#000000" style="fill: rgb(209, 0, 36);"></path><path d="m23.65427 27.37058c.17786.37939.34857.7641.54859 1.12561a18.52749 18.52749 0 1 0 4.41174-23.23065 13.65153 13.65153 0 1 0 -4.96033 22.105zm30.97779-16.26795a16.71076 16.71076 0 0 1 .01562 16.8125 16.5415 16.5415 0 0 1 -28.69531-.38867c-.17957-.3241-.33313-.66974-.49286-1.0105a13.631 13.631 0 0 0 5.00409-18.82153c-.18109-.30536-.37671-.59924-.57953-.88708a16.51563 16.51563 0 0 1 24.74799 4.29528zm-45.95801-2.37695a11.65807 11.65807 0 1 1 -.16305 11.5752 11.66954 11.66954 0 0 1 .16305-11.5752z" fill="#000000" style="fill: rgb(209, 0, 36);"></path><path d="m23.92893 43.5831a.99985.99985 0 0 0 -.89453-.55273h-4.28027v-10.84766a1 1 0 0 0 -2 0v11.84766a.99974.99974 0 0 0 1 1h3.27832l-6.48438 8.63183-6.48535-8.63183h3.28228a.99974.99974 0 0 0 1-1v-14.31937a1 1 0 0 0 -2 0v13.31937h-4.28423a.99973.99973 0 0 0 -.79932 1.60063l8.48731 11.29688a.99952.99952 0 0 0 1.59863 0l8.48633-11.29688a.99929.99929 0 0 0 .09521-1.0479z" fill="#000000" style="fill: rgb(209, 0, 36);"></path><path d="m39.216 49.70127h-4.28121v-8.28027a1 1 0 0 0 -2 0v9.28028a.99943.99943 0 0 0 1 1h3.2793l-6.48633 8.63182-6.48438-8.63183h3.28174a.99974.99974 0 0 0 1-1v-13.04297a1 1 0 0 0 -2 0v12.043h-4.28369a.99973.99973 0 0 0 -.79932 1.60058l8.48633 11.29688a.99953.99953 0 0 0 1.59864 0l8.48876-11.29688a1.00008 1.00008 0 0 0 -.7998-1.60058z" fill="#000000" style="fill: rgb(209, 0, 36);"></path><path d="m40.216 20.52353c2.8584 0 3.873.30957 3.873 2.05078 0 2.82493-5.83869 2.66424-6.92871 1.249a1.00049 1.00049 0 1 0 -1.584 1.22265 5.76566 5.76566 0 0 0 3.834 1.69263v1.78589a1 1 0 0 0 2 0v-1.7876c3.254-.33511 4.67871-2.14166 4.67871-4.1626 0-4.05078-3.82032-4.05078-5.873-4.05078-2.94434 0-3.4834-.6914-3.4834-2.05273 0-2.89529 5.81478-2.51386 6.84082-1.35352a1.00036 1.00036 0 1 0 1.49805-1.32617 5.9475 5.9475 0 0 0 -3.66113-1.465v-1.8045a1 1 0 0 0 -2 0v1.78418c-3.24878.30066-4.67774 2.0992-4.67774 4.165.00004 4.05277 3.9834 4.05277 5.4834 4.05277z" fill="#000000" style="fill: rgb(209, 0, 36);"></path><path d="m57.926 43.02939h-4.28027v-5.75879a1 1 0 0 0 -2 0v6.75879a.99942.99942 0 0 0 1 1h3.27832l-6.48535 8.63184-6.48438-8.63184h3.28223a.99942.99942 0 0 0 1-1v-3.99609a1 1 0 0 0 -2 0v2.99609h-4.28418a1.00009 1.00009 0 0 0 -.79981 1.60061l8.48633 11.29687a1.00048 1.00048 0 0 0 1.59961 0l8.48731-11.29687a1.00009 1.00009 0 0 0 -.79981-1.60059z" fill="#000000" style="fill: rgb(209, 0, 36);"></path></svg>