<!-- icon666.com - MILLIONS vector ICONS FREE --><svg id="Layer_1" viewBox="0 0 512 512" xmlns="http://www.w3.org/2000/svg" data-name="Layer 1"><circle cx="256" cy="256" fill="#ff5a54" r="240" style="fill: rgb(237, 237, 237);"></circle><g fill-rule="evenodd"><path d="m495.024 277.572a238.5 238.5 0 0 1 -25.941 88.922l.006.008q-5.406 10.4-11.779 20.186l-.009.014q-.72 1.106-1.452 2.2l-.079.119q-.709 1.063-1.429 2.117l-.089.131q-.724 1.059-1.46 2.111l-.073.1q-3.883 5.544-8.065 10.856l-.028.036q-.786 1-1.584 1.988l-.282.349q-.687.849-1.38 1.692l-.35.424q-.663.8-1.331 1.6l-.4.478q-.66.78-1.327 1.554l-.391.454q-.679.786-1.365 1.564l-.384.436q-.695.786-1.4 1.565l-.368.41-.132.146.009.008a239.376 239.376 0 0 1 -165.641 78.65l-119.44-100.412.454.339.485.3.515.248.54.2.563.145.584.09.6.03h118.92l-59.6-54.362-.381-.418-.339-.454-.3-.485-.249-.515-.2-.54-.145-.564-.089-.583-.031-.6v-50.509l.031-.6.089-.584.145-.563.2-.541.249-.514.3-.486.339-.453.381-.419.419-.381.453-.339.486-.295.514-.249.541-.2.563-.146.584-.089.6-.031h50.773l-54.933-54.362-.381-.418-.339-.453-.3-.486-.249-.515-.2-.54-.145-.564-.089-.583-.031-.6v-49.289l.031-.6.089-.583.145-.564.2-.54.249-.515.3-.485.339-.454.381-.418.419-.381.453-.339.486-.295.514-.249.541-.2.563-.145.584-.089.6-.031h138.897l.6-.031.584-.089.563-.145.54-.2.514-.248.486-.3.454-.339.418-.381.381-.418.339-.454.3-.485.248-.515.2-.54.146-.564.089-.583.031-.6v-40.857l-.031-.6-.089-.583-.146-.564-.2-.54-.248-.515-.3-.485-.339-.454z" fill="#db3a3c" style="fill: rgb(176, 39, 41);"></path><path d="m146.714 121.263v269.474a5.9 5.9 0 0 0 5.888 5.888h206.798a5.9 5.9 0 0 0 5.887-5.888v-40.858a5.9 5.9 0 0 0 -5.887-5.888h-143.316a5.9 5.9 0 0 1 -5.884-5.891v-50.5a5.9 5.9 0 0 1 5.888-5.888h123.622a5.9 5.9 0 0 0 5.888-5.887v-40.857a5.9 5.9 0 0 0 -5.888-5.887h-123.626a5.9 5.9 0 0 1 -5.888-5.888v-49.293a5.9 5.9 0 0 1 5.888-5.888h138.894a5.9 5.9 0 0 0 5.888-5.888v-40.861a5.9 5.9 0 0 0 -5.888-5.888h-202.378a5.9 5.9 0 0 0 -5.886 5.888z" fill="#fff" style="fill: rgb(255, 255, 255);"></path></g></svg>